<svg id="visual" viewBox="0 0 900 600" width="900" height="600" xmlns="http://www.w3.org/2000/svg" xmlns:xlink="http://www.w3.org/1999/xlink" version="1.1"><rect x="0" y="0" width="900" height="600" fill="#000000"></rect><path d="M0 396L21.5 404.5C43 413 86 430 128.8 438.3C171.7 446.7 214.3 446.3 257.2 446C300 445.7 343 445.3 385.8 439C428.7 432.7 471.3 420.3 514.2 410.8C557 401.3 600 394.7 642.8 393.5C685.7 392.3 728.3 396.7 771.2 411.7C814 426.7 857 452.3 878.5 465.2L900 478L900 601L878.5 601C857 601 814 601 771.2 601C728.3 601 685.7 601 642.8 601C600 601 557 601 514.2 601C471.3 601 428.7 601 385.8 601C343 601 300 601 257.2 601C214.3 601 171.7 601 128.8 601C86 601 43 601 21.5 601L0 601Z" fill="#0036ff" stroke-linecap="round" stroke-linejoin="miter"></path></svg>